<?xml version="1.0" encoding="utf-8"?>
<!-- Generator: Adobe Illustrator 17.0.2, SVG Export Plug-In . SVG Version: 6.00 Build 0)  -->
<!DOCTYPE svg PUBLIC "-//W3C//DTD SVG 1.1//EN" "http://www.w3.org/Graphics/SVG/1.1/DTD/svg11.dtd">
<svg version="1.1" id="icons" xmlns="http://www.w3.org/2000/svg" xmlns:xlink="http://www.w3.org/1999/xlink" x="0px" y="0px"
	 width="32px" height="32px" viewBox="0 0 32 32" enable-background="new 0 0 32 32" xml:space="preserve">
<path id="facebook" display="none" d="M28,0H4C1.8,0,0,1.8,0,4v24c0,2.2,1.8,4,4,4h12.138V20.526h-3.832v-4.999h3.832v-2.504
	c0-3.86,2.85-6.884,6.489-6.884h3.532v5.644h-3.16c-0.827,0-1.07,0.475-1.07,1.131v2.613h4.23v4.999h-4.23V32H28c2.201,0,4-1.8,4-4
	V4C32,1.8,30.201,0,28,0z"/>
<path id="twitter" display="none" d="M32,6.075c-1.178,0.522-2.443,0.875-3.771,1.034c1.356-0.812,2.397-2.099,2.887-3.632
	c-1.269,0.752-2.674,1.299-4.169,1.593c-1.198-1.276-2.904-2.073-4.792-2.073c-3.626,0-6.565,2.939-6.565,6.565
	c0,0.515,0.058,1.016,0.17,1.496C10.304,10.784,5.465,8.171,2.228,4.198c-0.565,0.97-0.889,2.097-0.889,3.301
	c0,2.278,1.159,4.287,2.921,5.464c-1.075-0.034-2.088-0.329-2.973-0.821c-0.001,0.027-0.001,0.054-0.001,0.082
	c0,3.181,2.264,5.835,5.266,6.437c-0.55,0.15-1.13,0.231-1.73,0.231c-0.423,0-0.834-0.041-1.235-0.118
	c0.836,2.608,3.261,4.506,6.133,4.559c-2.247,1.761-5.077,2.811-8.154,2.811c-0.53,0-1.052-0.031-1.566-0.093
	c2.905,1.863,6.355,2.951,10.064,2.951c12.075,0,18.679-10.004,18.679-18.68c0-0.284-0.006-0.567-0.019-0.85
	C30.007,8.548,31.12,7.392,32,6.075z"/>
<g id="linkedin" display="none">
	<path display="inline" d="M7.246,3.645c0,1.89-1.395,3.42-3.691,3.42C1.395,7.066,0,5.535,0,3.645C0,1.71,1.44,0.224,3.645,0.224
		C5.851,0.224,7.201,1.71,7.246,3.645z M0.18,31.776V9.766h6.841v22.009H0.18z"/>
	<path display="inline" d="M11.115,16.788c0-2.745-0.09-5.04-0.179-7.021h5.94l0.316,3.061h0.135c0.9-1.441,3.106-3.556,6.797-3.556
		c4.501,0,7.876,3.016,7.876,9.497v13.008h-6.842V19.578c0-2.836-0.99-4.77-3.466-4.77c-1.89,0-3.015,1.305-3.51,2.565
		c-0.181,0.45-0.226,1.08-0.226,1.71v12.692h-6.842V16.788z"/>
</g>
<path id="tumblr" display="none" d="M25.739,30.255c-1.351,0.644-2.575,1.096-3.668,1.356C20.975,31.87,19.789,32,18.517,32
	c-1.445,0-2.723-0.186-3.834-0.554c-1.11-0.371-2.056-0.897-2.842-1.579c-0.785-0.685-1.329-1.412-1.631-2.182
	c-0.303-0.77-0.454-1.887-0.454-3.349V13.111H6.261V8.584C7.502,8.175,8.567,7.59,9.452,6.827c0.886-0.762,1.596-1.679,2.132-2.748
	C12.121,3.011,12.489,1.651,12.692,0h4.496v8.089h7.504v5.022h-7.504v8.207c0,1.855,0.097,3.046,0.293,3.573
	c0.193,0.526,0.555,0.947,1.081,1.261c0.702,0.424,1.501,0.637,2.401,0.637c1.601,0,3.193-0.528,4.776-1.58V30.255z"/>
<path id="custom" display="none" d="M16,0C7.177,0,0,7.179,0,16c0,8.823,7.177,16,16,16c8.823,0,16-7.177,16-16
	C32,7.179,24.823,0,16,0z M29.646,16c0,3.121-1.059,6-2.826,8.302c-0.5-0.393-1.031-1.447-0.531-2.54
	c0.504-1.1,0.635-3.646,0.521-4.637c-0.111-0.99-0.625-3.377-2.024-3.4c-1.396-0.021-2.354-0.482-3.184-2.139
	c-1.722-3.446,3.233-4.108,1.51-6.017c-0.482-0.535-2.972,2.206-3.337-1.448C19.75,3.862,20,3.472,20.333,3.066
	C25.74,4.882,29.646,9.991,29.646,16z M14.125,2.489c-0.326,0.635-1.188,0.894-1.712,1.372c-1.139,1.031-1.628,0.889-2.243,1.878
	c-0.618,0.99-2.611,2.417-2.611,3.132c0,0.715,1.007,1.561,1.51,1.396c0.504-0.165,1.83-0.156,2.611,0.118
	c0.781,0.276,6.524,0.552,4.694,5.407c-0.58,1.543-3.121,1.283-3.799,3.84c-0.101,0.374-0.451,1.976-0.476,2.5
	c-0.042,0.809,0.573,3.863-0.208,3.863c-0.784,0-2.896-2.731-2.896-3.226c0-0.495-0.549-2.231-0.549-3.717
	c0-1.486-2.528-1.462-2.528-3.438c0-1.783,1.371-2.669,1.062-3.523c-0.302-0.849-2.712-0.881-3.715-0.983
	C5.021,6.557,9.149,3.177,14.125,2.489z M11.708,28.949c0.819-0.432,0.903-0.991,1.646-1.022c0.851-0.038,1.542-0.332,2.5-0.542
	c0.851-0.186,2.371-1.049,3.712-1.16c1.128-0.092,3.357,0.059,3.958,1.15c-2.16,1.434-4.747,2.271-7.524,2.271
	C14.5,29.646,13.059,29.399,11.708,28.949z"/>
<g id="credits" display="none">
	<path display="inline" d="M15.786,0.001C6.95,0.12-0.116,7.379,0.001,16.215c0.118,8.832,7.377,15.901,16.212,15.783
		c8.834-0.119,15.902-7.378,15.785-16.214C31.88,6.952,24.621-0.116,15.786,0.001z M17.56,5.333c1.626,0,2.107,0.944,2.107,2.023
		c0,1.348-1.079,2.595-2.921,2.595c-1.541,0-2.274-0.775-2.231-2.056C14.515,6.816,15.419,5.333,17.56,5.333z M13.39,26
		c-1.111,0-1.926-0.674-1.148-3.641l1.275-5.261c0.221-0.843,0.259-1.18,0-1.18c-0.334,0-1.776,0.582-2.628,1.156l-0.556-0.91
		c2.704-2.258,5.813-3.582,7.146-3.582c1.111,0,1.296,1.315,0.741,3.337l-1.461,5.531c-0.259,0.978-0.147,1.315,0.111,1.315
		c0.334,0,1.427-0.406,2.5-1.249L20,22.358C17.37,24.987,14.501,26,13.39,26z"/>
</g>
<path id="help" display="none" d="M15.786,0.001C6.951,0.12-0.116,7.379,0.001,16.215c0.118,8.832,7.377,15.901,16.213,15.783
	c8.834-0.119,15.902-7.378,15.784-16.214C31.88,6.952,24.621-0.117,15.786,0.001z M15.739,25.739l-0.088-0.001
	c-1.361-0.04-2.32-1.043-2.281-2.383c0.038-1.318,1.02-2.274,2.336-2.274l0.079,0.001c1.399,0.041,2.347,1.034,2.308,2.413
	C18.054,24.816,17.086,25.739,15.739,25.739z M21.462,14.379c-0.32,0.454-1.024,1.019-1.91,1.71l-0.976,0.674
	c-0.536,0.417-0.859,0.809-0.981,1.194c-0.096,0.304-0.143,0.384-0.151,1.002l-0.001,0.157h-3.728l0.011-0.316
	c0.046-1.297,0.077-2.059,0.615-2.69c0.843-0.99,2.703-2.188,2.782-2.238c0.266-0.201,0.491-0.429,0.658-0.673
	c0.391-0.539,0.565-0.964,0.565-1.381c0-0.579-0.172-1.115-0.512-1.592c-0.327-0.46-0.947-0.693-1.844-0.693
	c-0.89,0-1.499,0.282-1.864,0.862c-0.375,0.596-0.565,1.221-0.565,1.861v0.159H9.717l0.007-0.166c0.099-2.354,0.94-4.05,2.497-5.039
	c0.979-0.629,2.196-0.949,3.617-0.949c1.859,0,3.429,0.452,4.665,1.343c1.252,0.903,1.887,2.255,1.887,4.019
	C22.389,12.61,22.077,13.537,21.462,14.379z"/>
<g id="wordpress" display="none">
	<path display="inline" d="M2.274,16c0,5.433,3.157,10.128,7.736,12.353L3.463,10.414C2.701,12.121,2.274,14.01,2.274,16z"/>
	<path display="inline" d="M25.265,15.307c0-1.696-0.609-2.871-1.132-3.785c-0.696-1.131-1.348-2.088-1.348-3.219
		c0-1.262,0.957-2.436,2.305-2.436c0.061,0,0.119,0.008,0.178,0.011C22.826,3.641,19.573,2.275,16,2.275
		c-4.795,0-9.014,2.46-11.468,6.187c0.322,0.01,0.625,0.016,0.883,0.016c1.436,0,3.658-0.174,3.658-0.174
		C9.813,8.26,9.9,9.347,9.161,9.434c0,0-0.744,0.087-1.571,0.131l4.998,14.867l3.004-9.008l-2.138-5.859
		c-0.739-0.043-1.439-0.131-1.439-0.131c-0.74-0.043-0.653-1.174,0.087-1.131c0,0,2.267,0.174,3.615,0.174
		c1.435,0,3.658-0.174,3.658-0.174c0.74-0.044,0.827,1.043,0.088,1.131c0,0-0.745,0.087-1.571,0.131l4.96,14.754l1.369-4.575
		C24.814,17.846,25.265,16.482,25.265,15.307z"/>
	<path display="inline" d="M16.24,17.2l-4.118,11.966c1.23,0.361,2.53,0.559,3.877,0.559c1.598,0,3.131-0.276,4.558-0.778
		c-0.037-0.059-0.07-0.121-0.098-0.189L16.24,17.2z"/>
	<path display="inline" d="M28.043,9.415c0.059,0.437,0.092,0.907,0.092,1.411c0,1.393-0.26,2.958-1.044,4.916l-4.193,12.122
		c4.08-2.379,6.825-6.8,6.825-11.864C29.725,13.614,29.115,11.37,28.043,9.415z"/>
	<path display="inline" d="M16,0.001C7.178,0.001,0,7.178,0,16c0,8.823,7.178,16,16,16c8.822,0,16-7.177,16-16
		C32,7.178,24.821,0.001,16,0.001z M16,31.266C7.582,31.266,0.734,24.418,0.734,16C0.734,7.582,7.582,0.734,16,0.734
		c8.417,0,15.265,6.848,15.265,15.265C31.265,24.418,24.417,31.266,16,31.266z"/>
</g>
<path id="chevron-left" display="none" d="M24.185,29.803c0.498,0.503,0.498,1.318,0,1.821c-0.497,0.502-1.305,0.503-1.802,0
	L7.815,16.911c-0.498-0.503-0.498-1.318,0-1.821L22.383,0.377c0.498-0.503,1.305-0.503,1.802,0c0.498,0.503,0.498,1.318,0.001,1.821
	L10.9,16L24.185,29.803z"/>
<path id="chevron-right" display="none" d="M7.815,29.803c-0.498,0.503-0.498,1.318,0,1.821c0.497,0.502,1.305,0.503,1.803,0
	l14.567-14.712c0.498-0.503,0.498-1.318,0-1.821L9.618,0.377c-0.498-0.503-1.304-0.503-1.803,0c-0.498,0.503-0.498,1.318,0,1.821
	L21.1,16L7.815,29.803z"/>
<g id="media" display="none">
	<path display="inline" d="M27.4,10.674l-3.273-9.016c-0.242-0.666-0.951-1.018-1.582-0.787L0.789,8.81
		c-0.632,0.231-0.949,0.958-0.708,1.623l3.451,9.507v-5.096c0-2.299,1.838-4.169,4.097-4.169h5.748l6.856-4.812l3.967,4.812H27.4z
		 M30.781,13.561H7.629c-0.673,0-1.218,0.575-1.218,1.283v15.074c0,0.708,0.546,1.283,1.218,1.283h23.152
		c0.673,0,1.219-0.574,1.219-1.283V14.844C32,14.136,31.454,13.561,30.781,13.561z M29.014,27.993H9.823v-2.749l2.953-6.872
		l4.429,5.498l4.155-4.259l5.342-1.928l2.313,5.155V27.993z"/>
</g>
<g id="upgrade" display="none">
	<polygon display="inline" points="32,16.595 23.942,16.597 23.944,31.368 8.044,31.368 8.044,16.595 0,16.597 16.002,0.632 	"/>
</g>
<g id="networks" display="none">
	<path display="inline" d="M24.889,21.333c-1.222,0-2.344,0.415-3.243,1.107l-9.278-5.567c0.047-0.285,0.077-0.575,0.077-0.873
		c0-0.298-0.031-0.588-0.077-0.873l9.278-5.567c0.899,0.692,2.022,1.107,3.243,1.107c2.945,0,5.333-2.388,5.333-5.333
		S27.834,0,24.889,0s-5.333,2.388-5.333,5.333c0,0.298,0.031,0.588,0.078,0.873l-9.278,5.567c-0.899-0.691-2.022-1.107-3.244-1.107
		c-2.945,0-5.333,2.388-5.333,5.333s2.388,5.333,5.333,5.333c1.222,0,2.344-0.415,3.244-1.107l9.278,5.567
		c-0.047,0.285-0.078,0.575-0.078,0.873c0,2.945,2.388,5.333,5.333,5.333s5.333-2.388,5.333-5.333S27.834,21.333,24.889,21.333z"/>
</g>
<g id="camera" display="none">
	<path display="inline" d="M16,12.8c-2.651,0-4.8,2.15-4.8,4.8c0,2.651,2.149,4.8,4.8,4.8c2.651,0,4.8-2.149,4.8-4.8
		C20.8,14.95,18.651,12.8,16,12.8z M28.8,8h-3.84c-0.528,0-1.097-0.41-1.264-0.911l-0.993-2.979C22.536,3.61,21.968,3.2,21.44,3.2
		H10.56c-0.528,0-1.097,0.41-1.264,0.911L8.304,7.089C8.136,7.59,7.568,8,7.04,8H3.2C1.44,8,0,9.44,0,11.2v14.4
		c0,1.76,1.44,3.2,3.2,3.2h25.6c1.76,0,3.2-1.44,3.2-3.2V11.2C32,9.44,30.56,8,28.8,8z M16,25.6c-4.418,0-8-3.582-8-8
		c0-4.418,3.582-8,8-8c4.418,0,8,3.582,8,8C24,22.018,20.418,25.6,16,25.6z M27.68,13.438c-0.618,0-1.12-0.501-1.12-1.12
		c0-0.618,0.502-1.12,1.12-1.12c0.619,0,1.12,0.502,1.12,1.12C28.8,12.937,28.299,13.438,27.68,13.438z"/>
</g>
<g id="attachment" display="none">
	<path display="inline" d="M8.729,32c-2.139,0-4.14-0.907-5.585-2.353c-2.801-2.8-3.581-7.69,0.345-11.616
		C5.789,15.731,15.004,6.516,19.604,1.915c1.633-1.633,3.712-2.263,5.702-1.73c1.954,0.523,3.556,2.125,4.08,4.079
		c0.533,1.991-0.097,4.069-1.73,5.702L12.244,25.378c-0.88,0.88-1.874,1.401-2.873,1.506c-0.989,0.104-1.934-0.214-2.595-0.875
		c-1.199-1.199-1.37-3.455,0.623-5.447L18.224,9.736c0.445-0.445,1.165-0.445,1.61,0c0.445,0.445,0.445,1.166,0,1.61L9.009,22.172
		C8.073,23.107,7.988,24,8.386,24.399c0.175,0.175,0.44,0.254,0.745,0.221c0.469-0.049,1.003-0.352,1.503-0.852L26.046,8.356
		c1.057-1.057,1.463-2.301,1.14-3.502c-0.317-1.183-1.286-2.152-2.469-2.469c-1.201-0.322-2.445,0.083-3.503,1.141
		c-4.6,4.6-13.815,13.816-16.116,16.116c-3.003,3.003-2.283,6.457-0.345,8.396c1.938,1.938,5.393,2.658,8.396-0.345l16.116-16.116
		c0.445-0.445,1.165-0.445,1.61,0c0.445,0.445,0.445,1.166,0,1.61L14.76,29.302C12.86,31.202,10.734,32,8.729,32z"/>
</g>
<g id="link" display="none">
	<path display="inline" d="M11.719,25.389L10.1,26.996c-1.404,1.391-3.686,1.392-5.089,0c-0.674-0.669-1.045-1.558-1.045-2.503
		s0.371-1.834,1.045-2.503l5.96-5.913c1.235-1.225,3.559-3.029,5.252-1.349c0.777,0.772,2.032,0.767,2.804-0.01
		c0.772-0.777,0.767-2.032-0.01-2.803c-2.879-2.857-7.134-2.329-10.839,1.348l-5.961,5.914C0.787,20.596,0,22.484,0,24.494
		c0,2.009,0.787,3.897,2.218,5.317C3.689,31.271,5.621,32,7.555,32c1.934,0,3.867-0.729,5.339-2.19l1.62-1.608
		c0.777-0.771,0.781-2.027,0.009-2.804C13.753,24.621,12.496,24.617,11.719,25.389z M29.782,2.418
		c-3.092-3.068-7.415-3.235-10.278-0.395l-2.018,2.004c-0.777,0.771-0.782,2.027-0.01,2.804c0.772,0.777,2.027,0.782,2.804,0.01
		l2.018-2.003c1.483-1.472,3.424-0.862,4.691,0.394c0.675,0.669,1.046,1.559,1.046,2.503c0,0.945-0.371,1.834-1.045,2.504
		l-6.359,6.308c-2.907,2.885-4.271,1.531-4.854,0.953c-0.777-0.771-2.032-0.767-2.804,0.01c-0.772,0.777-0.767,2.032,0.01,2.804
		c1.335,1.325,2.859,1.982,4.455,1.982c1.955,0,4.021-0.985,5.985-2.935l6.359-6.308C31.212,11.633,32,9.745,32,7.735
		C32,5.726,31.212,3.838,29.782,2.418z"/>
</g>
<path id="keyboard" display="none" d="M29.76,6.4H2.24C1.008,6.4,0,7.408,0,8.64v14.72c0,1.232,1.008,2.24,2.24,2.24h27.52
	c1.232,0,2.24-1.008,2.24-2.24V8.64C32,7.408,30.992,6.4,29.76,6.4z M17.6,9.6h3.2v3.2h-3.2V9.6z M22.4,14.4v3.2h-3.2v-3.2H22.4z
	 M12.8,9.6H16v3.2h-3.2V9.6z M17.6,14.4v3.2h-3.2v-3.2H17.6z M8,9.6h3.2v3.2H8V9.6z M12.8,14.4v3.2H9.6v-3.2H12.8z M3.2,9.6h3.2v3.2
	H3.2V9.6z M8,14.4v3.2H4.8v-3.2H8z M6.4,22.4H3.2v-3.2h3.2V22.4z M24,22.4H8v-3.2h16V22.4z M28.8,22.4h-3.2v-3.2h3.2V22.4z M24,17.6
	v-3.2h3.2v3.2H24z M28.8,12.8h-6.4V9.6h6.4V12.8z"/>
<path id="star" display="none" d="M32,12.222H20.341L16,0l-4.342,12.223H0L9.512,19.4L6.111,32L16,24.445L25.888,32l-3.4-12.6
	L32,12.222z M16,20.879l-5.478,4.548l2.259-6.478l-5.183-4.181l6.402,0.182L16,7.605l1.998,7.345l6.402-0.182l-5.182,4.181
	l2.259,6.478L16,20.879z"/>
<path id="heart" display="none" d="M29.376,5.118c-3.11-2.855-8.153-2.855-11.264,0L16,7.056l-2.113-1.938
	c-3.11-2.855-8.153-2.855-11.263,0c-3.499,3.211-3.499,8.418,0,11.629L16,29.023l13.376-12.276
	C32.875,13.536,32.875,8.329,29.376,5.118z M27.395,14.838L16,25.468L4.606,14.838c-1.149-1.055-1.594-2.442-1.594-3.906
	c0-1.464,0.257-2.665,1.406-3.719c1.015-0.932,2.379-1.446,3.838-1.446c1.46,0,2.823,0.885,3.839,1.817l3.906,3.398l3.904-3.398
	c1.015-0.932,2.379-1.817,3.839-1.817c1.46,0,2.823,0.513,3.839,1.446c1.149,1.054,1.405,2.255,1.406,3.719
	C28.989,12.397,28.544,13.784,27.395,14.838z"/>
<path id="send" display="none" d="M28.832,4.691v19.341h-6.4v3.136H28.8c1.76,0,3.2-1.408,3.2-3.168V4.8c0-1.76-1.44-3.2-3.2-3.2
	H3.2C1.44,1.6,0,3.04,0,4.8V24c0,1.76,1.44,3.168,3.2,3.168h6.368v-3.136h-6.4V4.691H28.832z M15.917,13.078l-7.763,7.715h4.8V30.4
	h5.926v-9.607h4.8L15.917,13.078z"/>
<g id="disable" display="none">
	<path display="inline" d="M16,0C7.163,0,0,7.164,0,16c0,8.837,7.163,16,16,16c8.836,0,16-7.163,16-16C32,7.164,24.836,0,16,0z
		 M25.618,14.053l0.001,3.894H6.381v-3.894L25.618,14.053z"/>
</g>
<g id="enable" display="none">
	<path display="inline" d="M16,0C7.163,0,0,7.164,0,16c0,8.837,7.163,16,16,16c8.836,0,16-7.163,16-16C32,7.164,24.836,0,16,0z
		 M17.947,17.947v7.672h-3.894v-7.672H6.381v-3.894h7.672l0-7.672l3.894-0.001v7.672l7.671,0l0.001,3.894H17.947z"/>
</g>
<g id="mail_1_" display="none">
	<path display="inline" d="M1.056,7.619c0.868,0.467,12.886,6.922,13.333,7.162c0.448,0.24,1.027,0.356,1.611,0.356
		s1.164-0.116,1.611-0.356c0.447-0.24,12.465-6.696,13.333-7.162c0.868-0.466,1.69-1.93,0.095-1.93H0.961
		C-0.633,5.689,0.187,7.153,1.056,7.619z M31.312,11.175c-0.986,0.515-13.097,6.848-13.701,7.162
		c-0.604,0.315-1.027,0.356-1.611,0.356s-1.007-0.041-1.611-0.356c-0.604-0.315-12.714-6.648-13.701-7.162
		C-0.006,10.813,0,11.237,0,11.565s0,13.041,0,13.041c0,0.745,0.993,1.705,1.763,1.705h28.474c0.77,0,1.763-0.96,1.763-1.705
		c0,0,0-12.714,0-13.041S32.007,10.813,31.312,11.175z"/>
</g>
<g id="checkmark" display="none">
	<g display="inline">
		<path d="M12.103,32c-0.995,0-1.936-0.465-2.54-1.263L1.394,19.949c-1.063-1.403-0.786-3.401,0.617-4.463
			c1.405-1.063,3.402-0.785,4.464,0.617l5.372,7.094L25.36,1.501c0.93-1.492,2.895-1.949,4.39-1.021
			c1.494,0.93,1.95,2.896,1.02,4.389L14.808,30.498c-0.554,0.891-1.512,1.451-2.56,1.499C12.199,31.999,12.151,32,12.103,32z"/>
	</g>
</g>
<g id="plus" display="none">
	<path display="inline" d="M30.345,13.241H18.759V1.655C18.759,0.131,17.524,0,16,0s-2.759,0.131-2.759,1.655v11.586H1.655
		C0.131,13.241,0,14.476,0,16c0,1.524,0.131,2.759,1.655,2.759h11.586v11.586C13.241,31.869,14.476,32,16,32
		s2.759-0.131,2.759-1.655V18.759h11.586C31.869,18.759,32,17.524,32,16C32,14.476,31.869,13.241,30.345,13.241z"/>
</g>
<g id="minus" display="none">
	<path display="inline" d="M30.345,13.241H1.655C0.131,13.241,0,14.476,0,16c0,1.524,0.131,2.759,1.655,2.759h28.69
		C31.869,18.759,32,17.524,32,16C32,14.476,31.869,13.241,30.345,13.241z"/>
</g>
<g id="buffer" display="none">
	<g display="inline">
		<path d="M0.718,7.978l14.309,6.311c0.548,0.186,1.281,0.163,1.765,0l14.559-6.311c0.865-0.305,0.865-1.395,0-1.763L16.792,0.153
			c-0.484-0.201-1.342-0.207-1.765,0L0.718,6.215C-0.239,6.622-0.239,7.463,0.718,7.978z M31.351,14.941l-3.206-1.335l-11.353,4.922
			c-0.608,0.234-1.178,0.217-1.765,0L3.87,13.606l-3.151,1.335c-0.958,0.406-0.958,1.318,0,1.763l14.309,6.311
			c0.555,0.186,1.148,0.217,1.765,0l14.559-6.311C32.216,16.228,32.216,15.457,31.351,14.941z M31.351,23.775l-3.206-1.335
			l-11.353,4.922c-0.608,0.234-1.178,0.217-1.765,0L3.869,22.44l-3.151,1.335c-0.958,0.406-0.958,1.317,0,1.762l14.309,6.311
			c0.555,0.186,1.148,0.217,1.765,0l14.559-6.311C32.216,25.061,32.216,24.29,31.351,23.775z"/>
	</g>
</g>
<g id="cog">
	<path d="M28.922,16c0-1.995,1.228-3.57,3.078-4.653c-0.333-1.114-0.775-2.18-1.318-3.185c-2.074,0.543-3.753-0.27-5.164-1.681
		c-1.411-1.411-1.843-3.09-1.3-5.164C23.214,0.775,22.148,0.333,21.033,0C19.951,1.85,17.996,3.078,16,3.078
		c-1.995,0-3.951-1.228-5.034-3.078c-1.114,0.333-2.18,0.775-3.184,1.317c0.542,2.074,0.111,3.753-1.3,5.164
		c-1.411,1.411-3.09,2.224-5.164,1.681C0.775,9.167,0.333,10.234,0,11.347C1.85,12.43,3.078,14.005,3.078,16S1.85,19.951,0,21.033
		c0.333,1.114,0.775,2.181,1.318,3.185c2.074-0.543,3.753-0.111,5.164,1.3c1.411,1.411,1.843,3.09,1.3,5.164
		c1.004,0.543,2.071,0.985,3.185,1.318c1.083-1.849,3.038-3.078,5.033-3.078c1.996,0,3.951,1.228,5.033,3.078
		c1.114-0.333,2.181-0.775,3.185-1.318c-0.542-2.073-0.111-3.752,1.3-5.163c1.411-1.411,3.09-2.224,5.164-1.681
		c0.543-1.004,0.985-2.071,1.318-3.185C30.15,19.57,28.922,17.995,28.922,16z M16,22.958c-3.843,0-6.958-3.116-6.958-6.958
		c0-3.843,3.115-6.958,6.958-6.958c3.843,0,6.958,3.115,6.958,6.958C22.958,19.843,19.843,22.958,16,22.958z"/>
</g>
</svg>
